# xmcd
#
# Track frame offsets: 
#        150
#        11765
#        23012
#        33475
#        45337
#        57852
#        74662
#        84800
#        96082
#        115927
#        128725
#        140225
#        153412
#        166932
#
# Disc length: 2379 seconds
#
# Revision: 2
# Processed by: cddbd v1.5.2PL0 Copyright (c) Steve Scherf et al.
# Submitted via: ExactAudioCopy v0.95b4
#
DISCID=b209490e
DTITLE=John Lee Hooker - King Of The Boogie
DYEAR=1994
DGENRE=
TTITLE0=Boom Boom
TTITLE1=Good Rockin' Mama
TTITLE2=Big Legs Tight Skirt
TTITLE3=Boogie Chillun
TTITLE4=Crawlin' King Snake
TTITLE5=Mama You Got A Daughter
TTITLE6=Dimples
TTITLE7=What Do You Say
TTITLE8=House Rent Boogie
TTITLE9=Hobo Blues
TTITLE10=Hard-Headed Woman
TTITLE11=I Like To See You Walk
TTITLE12=Baby Lee
TTITLE13=Will The Circle Be Unbroken
EXTD=
EXTT0=
EXTT1=
EXTT2=
EXTT3=
EXTT4=
EXTT5=
EXTT6=
EXTT7=
EXTT8=
EXTT9=
EXTT10=
EXTT11=
EXTT12=
EXTT13=
PLAYORDER=
